<?xml version="1.0" encoding="UTF-8"?>
<svg width="752pt" height="752pt" version="1.1" viewBox="0 0 752 752" xmlns="http://www.w3.org/2000/svg">
 <path d="m376.93 151.63c-59.75 0-117.05 23.738-159.3 65.988s-65.988 99.555-65.988 159.3c0 39.547 10.41 78.398 30.184 112.65 19.773 34.25 48.215 62.691 82.461 82.465 34.25 19.773 73.102 30.184 112.65 30.184s78.398-10.41 112.65-30.184c34.25-19.773 62.691-48.215 82.465-82.465 19.773-34.25 30.18-73.102 30.18-112.65 0-59.75-23.734-117.05-65.984-159.3-42.254-42.25-99.555-65.988-159.31-65.988zm0 13.172 0.17578 0.003906 3.8359 0.089844-0.35547 13.965-3.6562-0.089843-2.9688 0.078124-0.35547-13.969 3.1445-0.074218zm-10.301 0.25781 0.34766 13.957-0.25781 0.007813-6.3516 0.48438-1.0625-13.922 6.543-0.49609 0.17188-0.019531h0.17969zm21.641 0.050781 6.9648 0.52344-1.0586 13.926-6.9609-0.52734zm-36.258 1.1953 1.7578 13.855-6.9219 0.87891-1.7617-13.855zm50.516 0.085937 6.5234 0.83203 0.17578 0.019532 0.17578 0.027344 0.39453 0.078124-2.4531 13.738-0.27344-0.046875-6.3047-0.78906zm-64.668 2.0586 2.457 13.75-3.3008 0.58984-3.1992 0.73828-3.1367-13.609 3.3359-0.77344 0.17188-0.039063 0.17578-0.03125zm78.812 0.125 2.8242 0.50391 0.17578 0.027344 0.17188 0.039063 4.0078 0.92969-3.1445 13.605-3.8672-0.89062-2.6211-0.46875zm-93.133 3.0156 3.8203 13.434-6.7227 1.9062-3.8125-13.441zm107.44 0.18359 6.7109 1.9102-3.8125 13.434-6.7188-1.9102zm-121.14 3.9219 4.4766 13.227-5.5312 1.875-0.75 0.29297-5.1211-12.996 0.91797-0.35938 0.16016-0.0625 0.16797-0.054687zm134.83 0.21875 5.0273 1.7031 0.16797 0.054687 0.15625 0.066407 1.5547 0.60937-5.1211 12.992-1.4023-0.54688-4.8594-1.6523zm-148.25 4.7422 5.1289 12.992-1.6875 0.66406-4.4023 1.9883-5.75-12.727 4.4961-2.0312 0.15625-0.078125 0.16406-0.058594zm161.66 0.25391 1.2656 0.49609 0.16016 0.058594 0.15625 0.078125 5.1289 2.3203-5.7539 12.715-5.0234-2.2617-1.0547-0.41406zm-175 5.7773 6.3594 12.43-6.2109 3.1797-6.3672-12.43zm188.32 0.30859 6.2109 3.1875-6.3633 12.43-6.2109-3.1875zm-94.461 2.9141c103.27 0 187.01 83.75 187.01 187.02 0 103.27-83.742 187.01-187.01 187.01-103.27 0-187.02-83.742-187.02-187.01 0-103.27 83.75-187.02 187.02-187.02zm0 3.3125c-101.47 0-183.7 82.23-183.7 183.7 0 101.47 82.23 183.7 183.7 183.7 101.47 0 183.7-82.223 183.7-183.7 0-101.47-82.223-183.7-183.7-183.7zm-106.45 0.24609 6.9609 12.109-3.2734 1.875-2.418 1.5508-7.5352-11.75 2.5664-1.6523 0.14062-0.085938 0.15234-0.089843zm213.48 0.33984 2.8125 1.6172 0.15234 0.089843 0.14062 0.085938 3.1406 2.0156-7.5352 11.758-2.9961-1.9219-2.6758-1.5352zm-225.89 7.4023 8.0898 11.383-5.6953 4.0469-8.0859-11.383zm238.27 0.39844 5.6914 4.0469-8.0898 11.383-5.6914-4.0469zm-249.8 8.0586 8.6289 10.977-4.2344 3.332-0.95312 0.82031-9.1445-10.547 1.1562-1.0117 0.13281-0.097657zm261.31 0.41797 3.8828 3.0547 0.12891 0.097657 0.125 0.10937 1.5547 1.3438-9.1445 10.559-1.4727-1.2734-3.6953-2.9023zm-272.29 8.7305 9.1406 10.555-0.97266 0.85156-3.8828 3.6875-9.6328-10.102 3.9688-3.7891 0.11719-0.11328 0.13281-0.11328zm283.26 0.44531 0.61719 0.53125 0.12109 0.11328 0.12891 0.11328 4.4609 4.2578-9.6328 10.102-4.375-4.1602-0.46484-0.40234zm-293.8 9.6836 10.102 9.6367-4.8164 5.0547-10.109-9.6328zm304.3 0.49609 4.5156 4.7305 0.10938 0.12109 0.11328 0.12891 0.29297 0.33984-10.551 9.1445-0.15625-0.18359-4.4258-4.6406zm-313.93 10.078 10.559 9.1445-1.957 2.2617-2.2617 2.875-10.977-8.6289 2.3945-3.0547 0.10547-0.12891 0.11328-0.125zm323.54 0.51562 1.5781 1.8281 0.11328 0.125 0.097656 0.12891 2.8203 3.5898-10.977 8.6289-2.6758-3.4102-1.5156-1.7461zm-332.65 10.922 11.379 8.0938-4.043 5.6953-11.383-8.0977zm341.71 0.55859 4.0508 5.6914-11.383 8.0859-4.0469-5.6836zm-349.8 11.238 11.762 7.5391-2.4844 3.8711-1.0156 1.7734-12.109-6.9609 1.0938-1.9062 0.085937-0.14062 0.09375-0.14453zm357.85 0.57813 2.2148 3.4531 0.09375 0.14063 0.082031 0.14453 1.4375 2.4961-12.109 6.9609-1.3555-2.3555-2.1211-3.3008zm-365.17 11.695 12.098 6.9648-0.26953 0.47656-2.7812 5.4219-12.422-6.3672 2.8477-5.5664 0.074219-0.14844 0.085938-0.14844zm372.47 0.59766 0.027344 0.035156 0.089844 0.14844 0.070312 0.15234 3.1602 6.1719-12.43 6.3672-3.0234-5.918-0.13672-0.25391 5.4648-2.8047zm-379.04 12.488 12.727 5.7539-2.6523 5.8633-0.074219 0.19531-0.011719-0.007813-0.011719 0.03125-0.60156-0.27344-12.367-4.8789 0.11328-0.28516 0.058594-0.16016 0.078125-0.15625zm385.55 0.62891 2.4648 5.4531 0.074218 0.15234 0.0625 0.16406 0.36328 0.92188-12.988 5.1211-0.32422-0.80469-2.375-5.2578zm-276.38 12.035c7.0781 0 13.582 0.9375 19.508 2.8164v34.469c-6.2852-2.0938-12.211-3.1445-17.777-3.1445-8.5234 0-15.605 3.9023-21.242 11.707-5.6367 7.8047-8.457 17.742-8.457 29.809 0 13.008 2.8203 23.305 8.457 30.895 5.707 7.5156 13.297 11.273 22.762 11.273 4.625 0 10.043-1.0859 16.258-3.2539v34.363c-6.9375 2.2383-13.152 3.3594-18.641 3.3594-19.008 0-34.434-7.1172-46.285-21.355-11.781-14.309-17.668-33.094-17.668-56.363 0-21.605 5.9609-39.422 17.883-53.438 11.926-14.094 26.992-21.137 45.203-21.137zm-114.73 0.51562 12.988 5.1289-0.93359 2.375-1.3125 3.8672-13.227-4.4766 1.3594-4.0391 0.058594-0.15625 0.070313-0.16406zm396.63 0.64062 0.74609 1.8945 0.066407 0.16406 0.050781 0.15625 1.5859 4.6797-13.227 4.4766-1.5742-4.6172-0.015625-0.058594-0.62891-1.5781zm-254.59 2.8516h34.254l17.883 63.953c3.3984 12.645 5.7109 23.449 6.9375 32.41h0.43359c1.0859-7.875 2.2773-14.344 3.5781-19.402l19.945-76.961h35.121l-43.469 144.71h-30.457zm136.04 0h66.445v30.785h-33.602v26.664h29.156v30.027h-29.156v26.34h33.82v30.891h-66.664zm-282.84 10.363 13.434 3.8125-1.9102 6.7188-13.434-3.8125zm406.09 0.65625 1.9102 6.7188-13.434 3.8125-1.9102-6.7148zm-409.76 13.18 13.605 3.1367-1.0977 4.7695-0.30859 1.707-13.75-2.4531 0.32422-1.793 0.03125-0.17188 0.035157-0.16797zm413.38 0.66406 1.0117 4.3633 0.039063 0.16797 0.03125 0.17188 0.4375 2.4688-13.746 2.4531-0.42188-2.3828-0.95312-4.0977zm-416.16 13.367 13.746 2.457-0.23438 1.3281-0.66406 5.2422-13.852-1.7617 0.69141-5.4766 0.027344-0.17969 0.03125-0.17188zm418.91 0.67969 0.13672 0.76172 0.03125 0.16797 0.023437 0.17969 0.78516 6.1523-13.855 1.7656-0.75-5.9141-0.11719-0.66016zm-420.72 13.879 13.926 1.0586-0.52734 6.9609-13.93-1.0625zm422.47 0.67969 0.52734 6.9609-13.926 1.0625-0.53125-6.9609zm-423.26 13.609 13.957 0.35156-0.11719 4.7031 0.046875 1.9219-13.957 0.35547-0.054687-2.0977v-0.34766zm424 0.6875 0.11328 4.1992-6.9766 0.17578 6.9766 0.17187-0.17578 6.9844-13.965-0.35547 0.17188-6.8008-0.10156-4.0195zm-409.94 13.27 0.027344 1.1953 0.41016 5.4219-13.922 1.0586-0.42188-5.4844-0.011719-0.17969-0.007813-0.17578-0.035156-1.4805zm395.58 4.5273 13.922 1.0508-0.52344 6.9648-13.93-1.0547zm-394.55 8.6914 0.88281 6.9297-13.855 1.7617-0.87891-6.9336zm393.18 4.8477 13.852 1.7617-0.42578 3.3945-0.023437 0.17188-0.035156 0.17969-0.625 3.5-13.742-2.457 0.59766-3.3867zm-391.19 8.6172 0.79297 4.4297 0.48047 2.0781-13.609 3.1367-0.53516-2.3125-0.035157-0.17188-0.03125-0.16797-0.8125-4.5391zm389.02 4.4648 13.605 3.1328-1.5742 6.8086-13.605-3.1445zm-386.17 8.8438 0.14844 0.64844 1.6328 5.7422-13.434 3.8125-1.6797-5.918-0.050781-0.17187-0.035157-0.16406-0.1875-0.80469zm382.92 4.3711 13.438 3.8164-1.6602 5.8359-0.042969 0.16406-0.058594 0.16406-0.29688 0.86719-13.227-4.4766 0.22656-0.66406zm-379.19 8.3594 2.2383 6.6172-13.227 4.4727-2.2422-6.6133zm375.1 4.625 13.234 4.4766-0.69922 2.0508-0.046874 0.16016-0.066407 0.16406-1.7695 4.4805-12.992-5.1211 1.6875-4.2617zm-370.43 8.168 1.0977 2.7578 1.5078 3.3438-12.723 5.7539-1.5977-3.5469-0.078125-0.15625-0.058594-0.14844-1.1367-2.8867zm365.58 4.1875 12.719 5.7578-2.875 6.3594-12.719-5.75zm-360.21 7.957 3.1836 6.2109-12.426 6.3633-3.1875-6.2109zm354.34 4.3398 12.438 6.3672-1.9023 3.7031-0.070312 0.14844-0.089844 0.14844-1.4062 2.4492-12.105-6.9609 1.3242-2.3047zm-347.93 7.6758 2.4062 4.1797 0.98047 1.5352-11.758 7.5312-1.0742-1.6758-0.09375-0.14453-0.085937-0.14844-2.4844-4.3164zm341.43 4.0273 4.1602 2.6758 7.8203 4.4883-0.046875 0.085938-0.082031 0.14844-0.09375 0.14062-3.7148 5.793-11.758-7.5352zm-334.27 7.5664 0.38281 0.60156 3.4375 4.832-11.383 8.0898-3.5234-4.9531-0.10156-0.13672-0.082032-0.13281-0.49219-0.76172zm326.82 3.7227 11.379 8.0938-3.4141 4.8008-0.09375 0.13672-0.10547 0.13281-0.67578 0.86328-10.977-8.6328 0.46875-0.59766 0.046874-0.058593zm-319.03 7.0469 4.0625 5.168 0.050782 0.054688 0.007812 0.011718-0.22656 0.17188-10.34 8.9531-0.20312-0.23438-0.11328-0.12891-0.10547-0.13281-4.1172-5.2383zm310.83 3.8359 10.977 8.6289-1.1016 1.3984-0.10156 0.13281-0.10938 0.12891-3.4062 3.9297-10.555-9.1445 3.2852-3.793zm-302.14 6.6641 1.6523 1.9102 0.015625 0.011718 2.832 2.9648-10.105 9.6367-3.0586-3.2109-0.12109-0.12109-0.10547-0.12891-1.668-1.9219zm293.41 3.3633 10.109 9.6406-4.8164 5.0508-10.109-9.6289zm-284.28 6.2852 5.0508 4.8242-9.6328 10.105-5.0508-4.8164zm274.66 3.375 9.6328 10.102-2.4453 2.3398-0.12891 0.11328-0.12109 0.10938-2.7188 2.3555-9.1406-10.559 2.5664-2.2188zm-264.62 5.8398 2.9961 2.5898 2.1133 1.6641-8.6289 10.98-2.2227-1.7461-0.13281-0.10547-0.125-0.11328-3.1406-2.7148zm254.66 2.9531 8.6289 10.984-5.4883 4.3203-8.6328-10.988zm-244.29 5.4453 5.6562 4.0195-8.0898 11.379-5.6602-4.0234-0.13672-0.09375-0.12891-0.10156-0.035156-0.027344 4.8125-6.1172zm233.44 2.8008 8.0898 11.383-4.0977 2.9102-0.13672 0.10156-0.14453 0.085938-1.6406 1.0586-7.5352-11.758 1.5273-0.98047zm-222.27 4.918 4.625 2.9648 0.050782 0.035156 0.9375 0.54297-6.9492 12.105-0.99609-0.57422-0.15234-0.078125-0.14062-0.097656-4.9102-3.1484zm210.92 2.6289 7.5352 11.754-0.79688 0.51953-0.14062 0.09375-0.15234 0.078125-5.2266 3.0078-6.9609-12.109 5.1719-2.9766 0.054687-0.03125zm-199.25 4.3906 1.3984 0.80469 4.4805 2.2969-6.3672 12.43-4.6328-2.375-0.15625-0.074219-0.14062-0.089843-1.5469-0.88281zm187.67 2.1484 6.3672 12.43-6.082 3.1094-0.14844 0.078125-0.15625 0.070313-0.13672 0.0625-4.1211-9.1211-1.8047-3.5195 0.17578-0.085938zm-175.84 3.8906 6.3594 2.875-5.7539 12.723-6.3594-2.875zm163.57 2.0078 5.75 12.727-2.5898 1.1719-0.15625 0.070312-0.16016 0.0625-3.8477 1.5156-5.1289-12.992 3.7422-1.4727zm-151.04 3.3281 3.3516 1.3242 2.8672 0.96875-4.4766 13.234-3.0352-1.0312-0.16797-0.058594-0.16016-0.0625-3.5078-1.3867zm138.72 1.6172 4.4766 13.234-6.6094 2.2344-4.4844-13.227zm-126.21 2.8047 6.7148 1.9102-3.8125 13.434-6.7148-1.9102zm113.24 1.332 3.8125 13.438-4.9102 1.3945-0.16797 0.046875-0.16797 0.042968-1.8281 0.42188-3.1406-13.609 1.6602-0.38672zm-100.09 2.2109 5.9102 1.3594 0.55469 0.097656-2.457 13.746-0.75391-0.13281-0.17578-0.035157-0.17188-0.035156-6.0508-1.3945zm86.883 1.0938 3.1445 13.605-1.293 0.30078-0.17188 0.035156-0.17578 0.035157-5.5625 0.99219-2.4531-13.746 5.3633-0.95703zm-73.543 1.5938 2.2344 0.39844 4.3281 0.55078-1.7617 13.855-4.4414-0.56641-0.17578-0.023437-0.17188-0.03125-2.4688-0.44141zm60.484 0.68359 1.7578 13.852-6.9258 0.88281-1.7617-13.855zm-47.344 1.0508 6.9648 0.53516-1.0586 13.922-6.957-0.52734zm33.812 0.37109 1.0586 13.926-4.4492 0.33984-0.16797 0.011719-0.18359 0.003906-2.5234 0.0625-0.35156-13.957 2.3594-0.058593zm-20.223 0.44141 5.7344 0.14453 0.89062-0.03125 0.35547 13.965-1.0547 0.03125-0.17578 0.007813-0.17969-0.007813-5.9258-0.14844z"/>
</svg>
