<?xml version="1.0" encoding="UTF-8" standalone="no"?>
<svg
   xmlns:dc="http://purl.org/dc/elements/1.1/"
   xmlns:cc="http://creativecommons.org/ns#"
   xmlns:rdf="http://www.w3.org/1999/02/22-rdf-syntax-ns#"
   xmlns:svg="http://www.w3.org/2000/svg"
   xmlns="http://www.w3.org/2000/svg"
   xmlns:sodipodi="http://sodipodi.sourceforge.net/DTD/sodipodi-0.dtd"
   xmlns:inkscape="http://www.inkscape.org/namespaces/inkscape"
   height="20"
   width="20"
   version="1.1"
   id="svg4"
   sodipodi:docname="start-here-arcolinux.svg"
   inkscape:version="0.92.4 5da689c313, 2019-01-14">
  <metadata
     id="metadata10">
    <rdf:RDF>
      <cc:Work
         rdf:about="">
        <dc:format>image/svg+xml</dc:format>
        <dc:type
           rdf:resource="http://purl.org/dc/dcmitype/StillImage" />
        <dc:title></dc:title>
      </cc:Work>
    </rdf:RDF>
  </metadata>
  <defs
     id="defs8" />
  <sodipodi:namedview
     pagecolor="#ffffff"
     bordercolor="#666666"
     borderopacity="1"
     objecttolerance="10"
     gridtolerance="10"
     guidetolerance="10"
     inkscape:pageopacity="0"
     inkscape:pageshadow="2"
     inkscape:window-width="1920"
     inkscape:window-height="1059"
     id="namedview6"
     showgrid="false"
     inkscape:zoom="14.75"
     inkscape:cx="55.401772"
     inkscape:cy="23.890718"
     inkscape:window-x="1920"
     inkscape:window-y="0"
     inkscape:window-maximized="1"
     inkscape:current-layer="svg4" />
  <path
     style="fill:#ffffff;fill-opacity:1;stroke-width:0.06136226"
     d="m 3.5018342,15.737323 c 0,-0.04155 6.027012,-11.5063499 6.2290571,-11.8491392 l 0.139581,-0.2368166 0.1524507,0.2674971 c 0.08385,0.1471215 0.698326,1.316791 1.365504,2.5992602 0.667177,1.2824727 2.012532,3.8609545 2.989676,5.7299595 1.371151,2.622634 1.757719,3.410175 1.693788,3.450686 -0.04556,0.02887 -0.594623,0.05291 -1.220136,0.05344 l -1.137298,9.02e-4 -0.335397,-0.34009 c -0.841452,-0.853221 -2.312165,-1.626767 -3.955771,-2.0806 l -0.7363441,-0.20332 0.9204334,-0.04617 c 0.8646687,-0.04337 1.8400927,-0.01413 2.3733937,0.07115 0.178251,0.0285 0.234502,0.01682 0.234502,-0.04869 0,-0.161851 -2.2562977,-4.2862198 -2.3448457,-4.2862198 -0.06453,0 -0.520021,0.793964 -2.2882086,3.9885438 -0.8686198,1.56934 -1.5841015,2.859162 -1.5899631,2.866274 -0.026172,0.03176 -2.4904224,0.0944 -2.4904224,0.06329 z"
     id="path4559-6-7-5"
     inkscape:connector-curvature="0" />
</svg>
