<?xml version="1.0" encoding="UTF-8" standalone="no"?>
<svg
   xmlns:dc="http://purl.org/dc/elements/1.1/"
   xmlns:cc="http://creativecommons.org/ns#"
   xmlns:rdf="http://www.w3.org/1999/02/22-rdf-syntax-ns#"
   xmlns:svg="http://www.w3.org/2000/svg"
   xmlns="http://www.w3.org/2000/svg"
   xmlns:sodipodi="http://sodipodi.sourceforge.net/DTD/sodipodi-0.dtd"
   xmlns:inkscape="http://www.inkscape.org/namespaces/inkscape"
   height="24"
   width="24"
   version="1.1"
   id="svg4"
   sodipodi:docname="start-here-arcolinux.svg"
   inkscape:version="0.92.4 5da689c313, 2019-01-14">
  <metadata
     id="metadata10">
    <rdf:RDF>
      <cc:Work
         rdf:about="">
        <dc:format>image/svg+xml</dc:format>
        <dc:type
           rdf:resource="http://purl.org/dc/dcmitype/StillImage" />
        <dc:title></dc:title>
      </cc:Work>
    </rdf:RDF>
  </metadata>
  <defs
     id="defs8" />
  <sodipodi:namedview
     pagecolor="#ffffff"
     bordercolor="#666666"
     borderopacity="1"
     objecttolerance="10"
     gridtolerance="10"
     guidetolerance="10"
     inkscape:pageopacity="0"
     inkscape:pageshadow="2"
     inkscape:window-width="1920"
     inkscape:window-height="1052"
     id="namedview6"
     showgrid="false"
     inkscape:zoom="14.75"
     inkscape:cx="43.062789"
     inkscape:cy="23.890718"
     inkscape:window-x="1920"
     inkscape:window-y="0"
     inkscape:window-maximized="1"
     inkscape:current-layer="svg4" />
  <path
     style="fill:#ffffff;fill-opacity:1;stroke-width:0.09780132"
     d="m 2.0726816,21.558455 c 0,-0.06622 9.6060634,-18.3392238 9.9280894,-18.8855734 L 12.22324,2.295435 12.466222,2.7217812 c 0.133643,0.2344874 1.113016,2.0987477 2.176388,4.1427913 1.06337,2.0440506 3.207644,6.1537255 4.765051,9.1326115 2.185388,4.180046 2.801514,5.435256 2.699618,5.499824 -0.07261,0.04601 -0.947731,0.08433 -1.944695,0.08517 l -1.812666,0.0014 -0.534567,-0.542047 c -1.341136,-1.359852 -3.68521,-2.592756 -6.304847,-3.316091 l -1.173611,-0.324059 1.467019,-0.07359 c 1.37814,-0.06912 2.932805,-0.02252 3.782798,0.113401 0.284103,0.04542 0.373758,0.02681 0.373758,-0.0776 0,-0.257964 -3.596167,-6.831528 -3.737298,-6.831528 -0.10285,0 -0.828827,1.265448 -3.6470269,6.357082 -1.3844367,2.501269 -2.5247966,4.557033 -2.534139,4.568368 -0.041714,0.05062 -3.9693225,0.150458 -3.9693225,0.100874 z"
     id="path4559-6-7-5"
     inkscape:connector-curvature="0" />
</svg>
