<?xml version="1.0" encoding="UTF-8" standalone="no"?>
<svg
   width="32"
   height="16"
   viewBox="0 0 32 16"
   id="svg4140"
   version="1.1"
   inkscape:version="1.2.1 (9c6d41e410, 2022-07-14)"
   sodipodi:docname="switch-on.svg"
   xmlns:inkscape="http://www.inkscape.org/namespaces/inkscape"
   xmlns:sodipodi="http://sodipodi.sourceforge.net/DTD/sodipodi-0.dtd"
   xmlns="http://www.w3.org/2000/svg"
   xmlns:svg="http://www.w3.org/2000/svg"
   xmlns:rdf="http://www.w3.org/1999/02/22-rdf-syntax-ns#"
   xmlns:cc="http://creativecommons.org/ns#"
   xmlns:dc="http://purl.org/dc/elements/1.1/">
  <defs
     id="defs4142" />
  <sodipodi:namedview
     id="base"
     pagecolor="#ffffff"
     bordercolor="#666666"
     borderopacity="1.0"
     inkscape:pageopacity="0.0"
     inkscape:pageshadow="2"
     inkscape:zoom="11.2"
     inkscape:cx="34.910714"
     inkscape:cy="8.5714286"
     inkscape:document-units="px"
     inkscape:current-layer="layer1"
     showgrid="false"
     units="px"
     inkscape:window-width="1920"
     inkscape:window-height="992"
     inkscape:window-x="0"
     inkscape:window-y="0"
     inkscape:window-maximized="1"
     inkscape:document-rotation="0"
     inkscape:pagecheckerboard="0"
     inkscape:showpageshadow="0"
     inkscape:deskcolor="#d1d1d1">
    <inkscape:grid
       type="xygrid"
       id="grid4688" />
  </sodipodi:namedview>
  <metadata
     id="metadata4145">
    <rdf:RDF>
      <cc:Work
         rdf:about="">
        <dc:format>image/svg+xml</dc:format>
        <dc:type
           rdf:resource="http://purl.org/dc/dcmitype/StillImage" />
      </cc:Work>
    </rdf:RDF>
  </metadata>
  <g
     inkscape:label="Layer 1"
     inkscape:groupmode="layer"
     id="layer1"
     transform="translate(0,-1036.3622)">
    <path
       id="path512"
       style="opacity:0.99;fill:#000000;stroke-width:3.07934"
       d="M 8 1036.3622 C 3.5680044 1036.3622 0 1039.9302 0 1044.3622 C 0 1048.7942 3.5680044 1052.3622 8 1052.3622 L 24 1052.3622 C 28.431996 1052.3622 32 1048.7942 32 1044.3622 C 32 1039.9302 28.431996 1036.3622 24 1036.3622 L 8 1036.3622 z M 24 1039.3622 A 5 5 0 0 1 24.392578 1039.3778 A 5 5 0 0 1 24.78125 1039.4247 A 5 5 0 0 1 25.167969 1039.5009 A 5 5 0 0 1 25.544922 1039.6063 A 5 5 0 0 1 25.914062 1039.7431 A 5 5 0 0 1 26.269531 1039.9071 A 5 5 0 0 1 26.613281 1040.0985 A 5 5 0 0 1 26.939453 1040.3173 A 5 5 0 0 1 27.248047 1040.5595 A 5 5 0 0 1 27.535156 1040.827 A 5 5 0 0 1 27.802734 1041.1142 A 5 5 0 0 1 28.044922 1041.4227 A 5 5 0 0 1 28.263672 1041.7489 A 5 5 0 0 1 28.455078 1042.0927 A 5 5 0 0 1 28.619141 1042.4481 A 5 5 0 0 1 28.755859 1042.8173 A 5 5 0 0 1 28.861328 1043.1942 A 5 5 0 0 1 28.9375 1043.581 A 5 5 0 0 1 28.984375 1043.9696 A 5 5 0 0 1 29 1044.3622 A 5 5 0 0 1 28.875 1045.4755 A 5 5 0 0 1 28.503906 1046.5321 A 5 5 0 0 1 27.908203 1047.4794 A 5 5 0 0 1 27.117188 1048.2704 A 5 5 0 0 1 26.169922 1048.8661 A 5 5 0 0 1 25.113281 1049.2372 A 5 5 0 0 1 24 1049.3622 A 5 5 0 0 1 22.886719 1049.2372 A 5 5 0 0 1 21.830078 1048.8661 A 5 5 0 0 1 20.882812 1048.2704 A 5 5 0 0 1 20.091797 1047.4794 A 5 5 0 0 1 19.496094 1046.5321 A 5 5 0 0 1 19.125 1045.4755 A 5 5 0 0 1 19 1044.3622 A 5 5 0 0 1 19.125 1043.2489 A 5 5 0 0 1 19.496094 1042.1923 A 5 5 0 0 1 20.091797 1041.245 A 5 5 0 0 1 20.882812 1040.454 A 5 5 0 0 1 21.830078 1039.8583 A 5 5 0 0 1 22.886719 1039.4872 A 5 5 0 0 1 24 1039.3622 z " />
  </g>
</svg>
